{"title":"Off World 2010 BRRip 720p x264 AAC - PRiSTiNE [P2PDL]","uid":8651583,"size":485645981,"categoryP":"video","categoryS":"hd___movies","magnet":"?xt=urn:btih:381cbe6eae3667231f7955923e371fe892eccccc&amp;dn=Off+World+2010+BRRip+720p+x264+AAC+-+PRiSTiNE+%5BP2PDL%5D&amp;tr=udp%3A%2F%2Ftracker.openbittorrent.com%3A80&amp;tr=udp%3A%2F%2Fopen.demonii.com%3A1337&amp;tr=udp%3A%2F%2Ftracker.coppersurfer.tk%3A6969&amp;tr=udp%3A%2F%2Fexodus.desync.com%3A6969","seeders":1,"leechers":0,"uploader":"ValidusVyto","files":-1,"time":1373122083,"description":"_______ Visit us at our Semi Public Bittorrent Community ________\n  &lt;a href=&quot;\nhttp://p2pdl.com&quot; rel=&quot;nofollow&quot; target=&quot;_NEW&quot;&gt;\nhttp://p2pdl.com&lt;/a&gt;  _____________________________ &lt;a href=&quot; http://p2pdl.com&quot; rel=&quot;nofollow&quot; target=&quot;_NEW&quot;&gt; http://p2pdl.com&lt;/a&gt;\n\n\nOff World 2010 BRRip 720p x264 AAC - PRiSTiNE\n\n\nGenre: Sci-Fi    \nDirector: Emmett Callinan\nStars: Alana Dietze, Steve West, Tonya Kay.\nRated: N/a\n\nInfo: &lt;a href=&quot;\nhttp://www.imdb.com/title/tt1584943/&quot; rel=&quot;nofollow&quot; target=&quot;_NEW&quot;&gt;\nhttp://www.imdb.com/title/tt1584943/&lt;/a&gt;\n\n\nFormat                         : MPEG-4\nFile size                      : 453 MiB\nDuration                       : 1h 30mn\nOverall bit rate               : 698 Kbps\nSource                         : 720p.BluRay.x264-NOSCREENS\n\nVideo\nFormat                         : AVC\nBit rate                       : 618 Kbps\nWidth                          : 1 280 pixels\nHeight                         : 640 pixels\nDisplay aspect ratio           : 2.000\nFrame rate mode                : Constant\nFrame rate                     : 23.976 fps\nStream size                    : 400 MiB (88%)\nWriting library                : x264 core 130 r2273\n\nAudio\nFormat                         : AAC\nBit rate mode                  : Variable\nBit rate                       : 77.4 Kbps\nChannel(s)                     : 2 channels\nChannel positions              : Front: L R\nSampling rate                  : 44.1 KHz\nStream size                    : 50.2 MiB (11%)\n &lt;a href=&quot;\nhttp://ultraimg.com/images/VZgsW.png&quot; rel=&quot;nofollow&quot; target=&quot;_NEW&quot;&gt;\nhttp://ultraimg.com/images/VZgsW.png&lt;/a&gt; &lt;a href=&quot;\nhttp://ultraimg.com/images/2ieuG.png&quot; rel=&quot;nofollow&quot; target=&quot;_NEW&quot;&gt;\nhttp://ultraimg.com/images/2ieuG.png&lt;/a&gt; &lt;a href=&quot;\nhttp://ultraimg.com/images/b49hE.png&quot; rel=&quot;nofollow&quot; target=&quot;_NEW&quot;&gt;\nhttp://ultraimg.com/images/b49hE.png&lt;/a&gt; &lt;a href=&quot;\nhttp://ultraimg.com/images/7ZKjy.png&quot; rel=&quot;nofollow&quot; target=&quot;_NEW&quot;&gt;\nhttp://ultraimg.com/images/7ZKjy.png&lt;/a&gt; &lt;a href=&quot;\nhttp://ultraimg.com/images/rie9H.png&quot; rel=&quot;nofollow&quot; target=&quot;_NEW&quot;&gt;\nhttp://ultraimg.com/images/rie9H.png&lt;/a&gt; &lt;a href=&quot;\nhttp://ultraimg.com/images/My5hN.png&quot; rel=&quot;nofollow&quot; target=&quot;_NEW&quot;&gt;\nhttp://ultraimg.com/images/My5hN.png&lt;/a&gt;\n\n\n----------------------------------------------------------------------------------------------------\n\n\nEncoded using revolutionary 10bit encoding, which enables us to provide you more crispier \nand sharper images at small sizes, just make sure you follow our instructions without a fault.\nRecommend to you to use latest version of VLC player. Install K-Lite Codec Pack or shark007 codecs\nin case of any kind of problem in playback (For non-VLC Media Player users). Alternatively, install\nCore AVC codecs, the fastest decoder that there is coupled with Community Center Codec Pack and play\non Windows Media Player Classic. Check sample to be sure.\nEnjoy!\n\nEncoder Notes:Looking For Early Access To Anything You Can Provide DVDScr, R5, DVDR, BluRay, Direct\nAudio, Music Releases and Seedboxes. We require dedicated servers, so as to do more \nand fast releases of movies.\nIf You Got anything to offer please contact us at &quot;&lt;a class=&quot;__cf_email__&quot; href=&quot;/cdn-cgi/l/email-protection&quot; data-cfemail=&quot;1c7f7372687d7f685c6c2e6c7870327f7371&quot;&gt;[email&amp;#160;protected]&lt;/a&gt;&lt;script cf-hash='f9e31' type=&quot;text/javascript&quot;&gt;\n/* &lt;![CDATA[ */!function(){try{var t=&quot;currentScript&quot;in document?document.currentScript:function(){for(var t=document.getElementsByTagName(&quot;script&quot;),e=t.length;e--;)if(t[e].getAttribute(&quot;cf-hash&quot;))return t[e]}();if(t&amp;&amp;t.previousSibling){var e,r,n,i,c=t.previousSibling,a=c.getAttribute(&quot;data-cfemail&quot;);if(a){for(e=&quot;&quot;,r=parseInt(a.substr(0,2),16),n=2;a.length-n;n+=2)i=parseInt(a.substr(n,2),16)^r,e+=String.fromCharCode(i);e=document.createTextNode(e),c.parentNode.replaceChild(e,c)}}}catch(u){}}();/* ]]&gt; */&lt;/script&gt;&quot;.\n\nFace book Fan Page:   &lt;a href=&quot;\nhttp://fbl.me/BC&quot; rel=&quot;nofollow&quot; target=&quot;_NEW&quot;&gt;\nhttp://fbl.me/BC&lt;/a&gt;","torrent":{"xt":"urn:btih:381cbe6eae3667231f7955923e371fe892eccccc","amp;dn":"Off+World+2010+BRRip+720p+x264+AAC+-+PRiSTiNE+%5BP2PDL%5D","amp;tr":["udp%3A%2F%2Ftracker.openbittorrent.com%3A80","udp%3A%2F%2Fopen.demonii.com%3A1337","udp%3A%2F%2Ftracker.coppersurfer.tk%3A6969","udp%3A%2F%2Fexodus.desync.com%3A6969"],"infoHash":"381cbe6eae3667231f7955923e371fe892eccccc","infoHashBuffer":{"type":"Buffer","data":[56,28,190,110,174,54,103,35,31,121,85,146,62,55,31,232,146,236,204,204]},"announce":[],"urlList":[]}}